bass:
	WRITE_NOTE NOTE_E1
	DB 0, $00, $00
	WRITE_NOTE NOTE_E1
	WRITE_NOTE NOTE_E1
	WRITE_NOTE NOTE_E1
	DB 0, $00, $00
	WRITE_NOTE NOTE_E1
	WRITE_NOTE NOTE_E1
	WRITE_NOTE NOTE_E1
	DB 0, $00, $00
	WRITE_NOTE NOTE_E1
	WRITE_NOTE NOTE_E1
	WRITE_NOTE NOTE_E1
	DB 0, $00, $00
	WRITE_NOTE NOTE_E1
	WRITE_NOTE NOTE_E1

	WRITE_NOTE NOTE_E1
	DB 0, $00, $00
	WRITE_NOTE NOTE_E1
	WRITE_NOTE NOTE_E1
	WRITE_NOTE NOTE_E1
	DB 0, $00, $00
	WRITE_NOTE NOTE_E1
	WRITE_NOTE NOTE_E1
	WRITE_NOTE NOTE_E1
	DB 0, $00, $00
	WRITE_NOTE NOTE_E1
	WRITE_NOTE NOTE_E1
	WRITE_NOTE NOTE_E1
	DB 0, $00, $00
	WRITE_NOTE NOTE_E1
	WRITE_NOTE NOTE_E1

	WRITE_NOTE NOTE_E1
	DB 0, $00, $00
	WRITE_NOTE NOTE_E1
	WRITE_NOTE NOTE_E1
	WRITE_NOTE NOTE_E1
	DB 0, $00, $00
	WRITE_NOTE NOTE_E1
	WRITE_NOTE NOTE_E1
	WRITE_NOTE NOTE_E1
	DB 0, $00, $00
	WRITE_NOTE NOTE_E1
	WRITE_NOTE NOTE_E1
	WRITE_NOTE NOTE_E1
	DB 0, $00, $00
	WRITE_NOTE NOTE_E1
	WRITE_NOTE NOTE_E1

	WRITE_NOTE NOTE_E1
	DB 0, $00, $00
	WRITE_NOTE NOTE_E1
	WRITE_NOTE NOTE_E1
	WRITE_NOTE NOTE_E1
	DB 0, $00, $00
	WRITE_NOTE NOTE_E1
	WRITE_NOTE NOTE_E1
	WRITE_NOTE NOTE_E1
	DB 0, $00, $00
	WRITE_NOTE NOTE_E1
	WRITE_NOTE NOTE_E1
	WRITE_NOTE NOTE_E1
	DB 0, $00, $00
	WRITE_NOTE NOTE_E1
	WRITE_NOTE NOTE_E1
bass_end:

lead:
	WRITE_NOTE NOTE_E4
	DB 0, $00, $00
	WRITE_NOTE NOTE_E4
	WRITE_NOTE NOTE_E4
	WRITE_NOTE NOTE_G4
	DB 0, $00, $00
	DB 0, $00, $00
	DB 0, $00, $00
	WRITE_NOTE NOTE_E4
	DB 0, $00, $00
	WRITE_NOTE NOTE_E4
	WRITE_NOTE NOTE_E4
	WRITE_NOTE NOTE_A4
	DB 0, $00, $00
	DB 0, $00, $00
	DB 0, $00, $00

	DB 0, $00, $00
	DB 0, $00, $00
	DB 0, $00, $00
	DB 0, $00, $00
	DB 0, $00, $00
	DB 0, $00, $00
	DB 0, $00, $00
	DB 0, $00, $00
	DB 0, $00, $00
	DB 0, $00, $00
	DB 0, $00, $00
	DB 0, $00, $00
	DB 0, $00, $00
	DB 0, $00, $00
	DB 0, $00, $00
	DB 0, $00, $00

	WRITE_NOTE NOTE_E4
	DB 0, $00, $00
	WRITE_NOTE NOTE_E4
	WRITE_NOTE NOTE_E4
	WRITE_NOTE NOTE_G4
	DB 0, $00, $00
	DB 0, $00, $00
	DB 0, $00, $00
	WRITE_NOTE NOTE_E4
	DB 0, $00, $00
	WRITE_NOTE NOTE_E4
	WRITE_NOTE NOTE_E4
	WRITE_NOTE NOTE_Gb4
	DB 0, $00, $00
	DB 0, $00, $00
	DB 0, $00, $00

	DB 0, $00, $00
	DB 0, $00, $00
	DB 0, $00, $00
	DB 0, $00, $00
	DB 0, $00, $00
	DB 0, $00, $00
	DB 0, $00, $00
	DB 0, $00, $00
	DB 0, $00, $00
	DB 0, $00, $00
	DB 0, $00, $00
	DB 0, $00, $00
	DB 0, $00, $00
	DB 0, $00, $00
	DB 0, $00, $00
	DB 0, $00, $00
lead_end:
